<svg xmlns="http://www.w3.org/2000/svg" width="100" height="93" viewBox="0 0 100 93" fill="none">
<path d="M14.8818 76.6523C14.9033 76.4022 14.9355 76.2071 14.9355 76.012C14.9355 73.2973 14.9355 70.5825 14.9355 67.8677C14.9355 67.1217 15.2306 66.5543 15.9163 66.2589C16.6019 65.9635 17.258 66.0954 17.8511 66.5186C17.9891 66.6213 18.1035 66.7538 18.1862 66.9066C18.269 67.0595 18.3181 67.229 18.3301 67.4033C18.3729 67.7447 18.3971 68.0882 18.4025 68.4324C18.4092 70.3778 18.4025 72.3232 18.4025 74.2713C18.4025 76.5918 18.428 78.915 18.4334 81.2355C18.4334 82.0049 18.4401 82.7743 18.3958 83.5395C18.2751 85.7583 17.6364 87.7834 16.1699 89.4911C15.3289 90.4682 14.2761 91.2299 13.0959 91.7154C11.623 92.3594 10.0242 92.6449 8.42532 92.5494C6.92057 92.4338 5.46673 91.9407 4.19212 91.1137C2.91612 90.3155 1.86822 89.2933 1.14368 87.9538C0.63394 86.9683 0.297406 85.8987 0.149444 84.7938C-0.0983031 83.322 -0.037474 81.8131 0.327895 80.3672C0.904845 78.1883 2.01312 76.3651 3.9506 75.1465C5.33179 74.278 6.91477 73.8036 8.53534 73.7726C10.8257 73.7053 12.6854 74.6285 14.2928 76.1961C14.4162 76.3143 14.537 76.4366 14.6617 76.5547C14.6913 76.5753 14.7382 76.5849 14.8818 76.6523ZM15.0884 83.4447C15.0468 82.9776 15.024 82.5091 14.9542 82.0447C14.7863 80.8031 14.237 79.6483 13.3857 78.7474C12.1567 77.4519 10.6459 76.8693 8.86407 76.9847C6.51065 77.1359 4.8858 78.3504 3.89962 80.462C3.14153 82.0873 3.17642 83.7593 3.73727 85.4451C4.56378 87.918 7.01112 89.6436 9.64094 89.4101C11.3624 89.2562 12.7471 88.5129 13.7856 87.1088C14.5702 86.0496 15.0243 84.7725 15.0884 83.4447Z" fill="white"/>
<path d="M85.9818 84.4292C86.0082 84.9273 86.129 85.4154 86.3374 85.8662C87.341 88.0644 89.0463 89.2693 91.436 89.5001C92.9317 89.6466 94.4331 89.2876 95.7108 88.478C96.2059 88.173 96.6943 87.901 97.3101 87.9284C98.0092 87.9573 98.8827 88.717 98.786 89.5125C98.7594 89.8262 98.622 90.1193 98.3996 90.3368C97.6793 91.0126 96.8294 91.5273 95.904 91.8481C94.6922 92.3039 93.4125 92.5414 92.1216 92.5501C89.8857 92.5671 87.7084 91.818 85.9362 90.422C84.1007 89.0028 83.097 87.0917 82.8139 84.7891C82.5738 82.83 82.7348 80.9038 83.4969 79.0711C84.5166 76.6256 86.3145 75.0305 88.8196 74.2378C90.0039 73.8445 91.2519 73.6923 92.4933 73.7899C94.3302 73.9312 96.0662 74.7061 97.4175 75.9881C98.8934 77.3702 99.6662 79.1164 99.9238 81.1071C99.9912 81.7283 100.012 82.3539 99.9869 82.9784C99.9708 83.7546 99.4247 84.3055 98.6666 84.3522C98.0306 84.388 97.396 84.4127 96.7614 84.4168C93.3694 84.4223 89.9788 84.4223 86.5896 84.4168C86.395 84.4292 86.2099 84.4292 85.9818 84.4292ZM86.0489 81.5578H96.709C96.7188 81.4876 96.725 81.417 96.7278 81.3462C96.7264 81.2666 96.7201 81.1873 96.709 81.1085C96.2931 78.9172 95.0761 77.4774 92.8824 76.9429C90.5893 76.381 87.9515 77.4265 86.7104 79.4159C86.2932 80.0498 86.0636 80.7935 86.0489 81.5578Z" fill="white"/>
<path d="M65.0806 84.4303C65.259 85.5292 65.7193 86.5599 66.4143 87.4171C67.3629 88.6 68.6335 89.1921 70.088 89.4394C71.8886 89.743 73.5362 89.324 75.0605 88.3403C75.4442 88.093 75.8387 87.9075 76.3177 87.9281C76.5819 87.9326 76.8416 87.999 77.0768 88.1224C77.3119 88.2458 77.5163 88.4228 77.6742 88.6398C78.0955 89.1894 77.9533 89.9917 77.3683 90.489C76.4295 91.2732 75.3352 91.8386 74.1615 92.1459C72.9771 92.481 71.746 92.6088 70.52 92.5237C67.7641 92.3122 65.4361 91.1842 63.6516 89.0272C62.7272 87.9089 62.2066 86.5859 61.9838 85.1502C61.686 83.2267 61.8 81.3322 62.4601 79.5022C63.4477 76.7627 65.369 75 68.1344 74.1894C69.77 73.7113 71.4243 73.5959 73.0921 74.0644C74.2765 74.3954 75.3757 74.9882 76.3123 75.8009C77.8687 77.1473 78.7167 78.8867 79.0146 80.909C79.0912 81.53 79.1261 82.1557 79.1192 82.7816C79.1353 83.9054 78.4081 84.3808 77.532 84.3808C73.5537 84.3808 69.5754 84.4096 65.5985 84.4316C65.4455 84.4303 65.2926 84.4303 65.0806 84.4303ZM75.7998 81.5616C75.8169 81.4961 75.8299 81.4296 75.8387 81.3624C75.8436 81.2683 75.8391 81.1739 75.8253 81.0807C75.6441 79.8443 75.1141 78.7919 74.14 77.9909C72.8251 76.9138 71.3224 76.5841 69.6841 76.9014C67.8231 77.26 66.3633 78.1805 65.5623 79.9816C65.3436 80.4749 65.1248 80.975 65.2067 81.5589C68.7516 81.5616 72.2696 81.5616 75.7998 81.5616Z" fill="white"/>
<path d="M41.0393 82.939C41.0044 85.9011 40.1403 88.1886 38.2994 90.0639C37.1174 91.266 35.6441 91.9447 34.0193 92.3047C31.7101 92.8144 29.4842 92.5959 27.3696 91.4996C24.835 90.1862 23.3618 88.0649 22.8077 85.2732C22.3984 83.2124 22.5393 81.1859 23.3672 79.2378C24.6713 76.1575 27.0221 74.4622 30.2664 73.9662C30.7101 73.8863 31.1582 73.8349 31.6082 73.8123C32.0868 73.8105 32.565 73.8403 33.0398 73.9016C34.6083 74.0844 36.0627 74.5886 37.3481 75.5365C39.2132 76.9104 40.3711 78.7473 40.8031 81.032C40.9373 81.7726 40.9883 82.5227 41.0393 82.939ZM25.9661 82.6381C25.9661 84.4324 26.2774 85.7472 26.8933 86.6855C28.2203 88.712 30.1135 89.6215 32.4977 89.3907C34.085 89.2409 35.4066 88.5197 36.3713 87.2213C37.489 85.7183 37.8392 84.0065 37.591 82.1614C37.4072 80.7875 36.8732 79.584 35.8762 78.5975C33.1418 75.8883 29.2521 76.6961 27.2609 79.1196C26.4666 80.1168 26.012 81.3522 25.9661 82.6381Z" fill="white"/>
<path d="M49.0507 89.3129H49.625C52.0768 89.3129 54.5268 89.3129 56.975 89.3129C57.3037 89.3176 57.6316 89.348 57.9558 89.4035C58.2057 89.4353 58.4387 89.5489 58.6203 89.7275C58.8019 89.906 58.9223 90.1398 58.9635 90.3941C59.0123 90.77 59.0046 91.1513 58.9407 91.5248C58.8414 92.1005 58.4375 92.4151 57.8794 92.525C57.7246 92.5504 57.5678 92.5614 57.4111 92.558C53.5777 92.558 49.7471 92.5511 45.9137 92.5676C45.2885 92.5676 44.6458 92.2241 44.4244 91.6182C44.3441 91.4123 44.3046 91.1921 44.3081 90.9704C44.3115 90.7488 44.3579 90.53 44.4445 90.3268C44.5826 89.9902 44.7592 89.6715 44.9705 89.3774C47.4017 86.1168 49.8396 82.8566 52.2843 79.5968C52.7566 78.9662 53.2302 78.3342 53.6985 77.7036C53.7991 77.5662 53.8823 77.4288 54.0232 77.2049H53.4489C50.8889 77.2049 48.3288 77.2049 45.7688 77.2049C45.5029 77.2025 45.2382 77.1688 44.9798 77.1046C44.4606 76.9755 44.1238 76.6389 44.05 76.0948C43.9987 75.7832 43.9941 75.4654 44.0366 75.1523C44.1547 74.4338 44.6297 74.0422 45.3783 73.9969C45.754 73.9735 46.1324 73.9612 46.5068 73.9612C49.8164 73.9612 53.1305 73.9612 56.4491 73.9612C56.7174 73.9612 56.9858 73.99 57.2474 73.99C58.3731 73.9832 58.7904 75.0163 58.6656 75.8613C58.5838 76.3161 58.3893 76.7419 58.1008 77.0977C57.0676 78.4716 56.0389 79.8487 55.0147 81.229C53.1202 83.7743 51.2306 86.321 49.3459 88.8691C49.2533 88.9831 49.1795 89.115 49.0507 89.3129Z" fill="white"/>
<path d="M56.5108 35.8453C52.723 35.9552 49.9469 38.7634 49.4518 42.9895C48.9366 47.3859 52.2131 51.3481 56.5242 51.5405C60.5373 51.7204 63.9038 48.1511 63.9132 43.7217C63.9158 39.1742 60.6728 35.723 56.5108 35.8453Z" fill="white"/>
<path d="M45.9594 0.479004C28.667 0.479004 14.6484 14.8319 14.6484 32.5384C14.6484 50.2449 28.667 64.5991 45.9594 64.5991H77.2703V32.5384C77.2703 14.8319 63.2518 0.479004 45.9594 0.479004ZM67.8955 43.0224C67.8861 45.8237 67.3776 48.5344 65.6481 50.7766C62.6882 54.6152 58.6979 55.853 54.1198 54.9366C49.6586 54.0436 46.4786 50.5787 45.7125 45.968C45.0416 41.9027 45.734 38.1369 48.6643 35.1144C52.6386 30.9928 58.8736 31.0161 62.8949 35.0759C63.0814 35.2655 63.2826 35.44 63.6878 35.8164C63.7214 35.2422 63.7562 34.9262 63.7562 34.6102C63.7562 31.3349 63.7442 28.0582 63.7656 24.7828C63.7764 23.1782 64.8779 22.281 66.3391 22.6217C67.1965 22.821 67.6916 23.3691 67.7895 24.2924C67.8592 24.8985 67.8969 25.508 67.9022 26.1183C67.9049 31.7511 67.9143 37.3868 67.8955 43.0224Z" fill="white"/>
</svg>